# 3ds Max Wavefront OBJ Exporter v0.97b - (c)2007 guruware
# File Created: 17.03.2014 14:32:42

#
# object Box001
#

v  -10.5930 0.1280 -0.0000
v  0.0000 0.1280 -0.0000
v  0.0000 0.1280 10.5930
v  -10.5930 0.1280 10.5930
v  0.0000 0.7435 10.0501
v  0.0000 0.7435 -0.0000
v  -10.0501 0.7435 -0.0000
v  -10.0501 0.7435 10.0501
v  0.0000 10.0000 11.6842
v  -11.6842 10.0000 11.6842
v  10.5930 0.1280 10.5930
v  10.5930 0.1280 -0.0000
v  11.6842 10.0000 -0.0000
v  11.6842 10.0000 11.6842
v  10.5930 0.1280 -10.5930
v  0.0000 0.1280 -10.5930
v  0.0000 10.0000 -11.6842
v  11.6842 10.0000 -11.6842
v  -10.5930 0.1280 -10.5930
v  -11.6842 10.0000 -0.0000
v  -11.6842 10.0000 -11.6842
v  0.0000 40.0000 15.0000
v  0.0000 40.0000 14.2312
v  -14.2312 40.0000 14.2312
v  -15.0000 40.0000 15.0000
v  15.0000 40.0000 -0.0000
v  14.2312 40.0000 -0.0000
v  14.2312 40.0000 14.2312
v  15.0000 40.0000 15.0000
v  0.0000 40.0000 -15.0000
v  0.0000 40.0000 -14.2312
v  14.2312 40.0000 -14.2312
v  15.0000 40.0000 -15.0000
v  -15.0000 40.0000 -0.0000
v  -14.2312 40.0000 -0.0000
v  -14.2312 40.0000 -14.2312
v  -15.0000 40.0000 -15.0000
v  0.0000 30.0000 13.1661
v  -13.1661 30.0000 13.1661
v  13.1661 30.0000 -0.0000
v  13.1661 30.0000 13.1661
v  0.0000 30.0000 -13.1661
v  13.1661 30.0000 -13.1661
v  -13.1661 30.0000 -0.0000
v  -13.1661 30.0000 -13.1661
v  10.0501 0.7435 -10.0501
v  0.0000 0.7435 -10.0501
v  10.0501 0.7435 -0.0000
v  10.0501 0.7435 10.0501
v  -10.0501 0.7435 -10.0501
v  0.0000 30.0000 13.8947
v  -13.8947 30.0000 13.8947
v  -12.7965 20.0640 12.7965
v  0.0000 20.0640 12.7965
v  13.8947 30.0000 -0.0000
v  13.8947 30.0000 13.8947
v  12.7965 20.0640 12.7965
v  12.7965 20.0640 -0.0000
v  0.0000 30.0000 -13.8947
v  13.8947 30.0000 -13.8947
v  12.7965 20.0640 -12.7965
v  0.0000 20.0640 -12.7965
v  -13.8947 30.0000 -0.0000
v  -13.8947 30.0000 -13.8947
v  -12.7965 20.0640 -12.7965
v  -12.7965 20.0640 -0.0000
v  0.0000 20.0640 12.1079
v  0.0000 10.0000 11.0360
v  -11.0360 10.0000 11.0360
v  -12.1079 20.0640 12.1079
v  12.1079 20.0640 -0.0000
v  11.0360 10.0000 -0.0000
v  11.0360 10.0000 11.0360
v  12.1079 20.0640 12.1079
v  0.0000 20.0640 -12.1079
v  0.0000 10.0000 -11.0360
v  11.0360 10.0000 -11.0360
v  12.1079 20.0640 -12.1079
v  -12.1079 20.0640 -0.0000
v  -11.0360 10.0000 -0.0000
v  -11.0360 10.0000 -11.0360
v  -12.1079 20.0640 -12.1079
# 82 vertices

vn 0.0000 -1.0000 0.0000
vn 0.0000 1.0000 -0.0000
vn 0.0000 -0.1099 0.9939
vn 0.9939 -0.1099 0.0000
vn 0.0000 -0.1099 -0.9939
vn -0.9939 -0.1099 0.0000
vn 0.0000 0.1059 -0.9944
vn -0.9944 0.1059 -0.0000
vn 0.0000 0.1059 0.9944
vn 0.9944 0.1059 -0.0000
vn -0.9939 -0.1099 -0.0000
# 11 vertex normals

vt 1.0000 0.5000
vt 0.5000 0.5000
vt 0.5000 0.0000
vt 1.0000 0.0000
vt 0.0000 0.5000
vt 0.0000 0.0000
vt 0.5000 0.2476
vt 0.0000 0.2476
vt 0.5000 1.0000
vt 0.0000 1.0000
vt 1.0000 1.0000
vt 1.0000 0.2476
vt 0.5000 0.7492
vt 0.0000 0.7492
vt 1.0000 0.7492
# 15 texture coords

g Box001
f 1/1/1 2/2/1 3/3/1 
f 3/3/1 4/4/1 1/1/1 
f 5/3/2 6/2/2 7/5/2 
f 7/5/2 8/6/2 5/3/2 
f 4/6/3 3/3/3 9/7/3 
f 9/7/3 10/8/3 4/6/3 
f 11/6/4 12/3/4 13/7/4 
f 13/7/4 14/8/4 11/6/4 
f 15/6/5 16/3/5 17/7/5 
f 17/7/5 18/8/5 15/6/5 
f 19/6/6 1/3/6 20/7/6 
f 20/7/6 21/8/6 19/6/6 
f 22/9/2 23/3/2 24/6/2 
f 24/6/2 25/10/2 22/9/2 
f 26/9/2 27/1/2 28/4/2 
f 28/4/2 29/10/2 26/9/2 
f 30/9/2 31/9/2 32/11/2 
f 32/11/2 33/10/2 30/9/2 
f 34/9/2 35/5/2 36/10/2 
f 36/10/2 37/10/2 34/9/2 
f 23/3/7 38/3/7 39/6/7 
f 39/6/7 24/6/7 23/3/7 
f 27/1/8 40/1/8 41/4/8 
f 41/4/8 28/4/8 27/1/8 
f 31/9/9 42/9/9 43/11/9 
f 43/11/9 32/11/9 31/9/9 
f 35/5/10 44/5/10 45/10/10 
f 45/10/10 36/10/10 35/5/10 
f 19/11/1 16/9/1 2/2/1 
f 2/2/1 1/1/1 19/11/1 
f 46/11/2 47/9/2 6/2/2 
f 6/2/2 48/1/2 46/11/2 
f 15/4/4 18/12/4 13/7/4 
f 13/7/4 12/3/4 15/4/4 
f 4/4/6 10/12/11 20/7/6 
f 20/7/6 1/3/6 4/4/6 
f 26/9/2 33/11/2 32/11/2 
f 32/11/2 27/1/2 26/9/2 
f 34/9/2 25/11/2 24/6/2 
f 24/6/2 35/5/2 34/9/2 
f 27/1/8 32/11/8 43/11/8 
f 43/11/8 40/1/8 27/1/8 
f 35/5/10 24/6/10 39/6/10 
f 39/6/10 44/5/10 35/5/10 
f 12/5/1 11/6/1 3/3/1 
f 3/3/1 2/2/1 12/5/1 
f 49/4/2 48/1/2 6/2/2 
f 6/2/2 5/3/2 49/4/2 
f 11/4/3 14/12/3 9/7/3 
f 9/7/3 3/3/3 11/4/3 
f 19/4/5 21/12/5 17/7/5 
f 17/7/5 16/3/5 19/4/5 
f 22/9/2 29/11/2 28/4/2 
f 28/4/2 23/3/2 22/9/2 
f 30/9/2 37/11/2 36/10/2 
f 36/10/2 31/9/2 30/9/2 
f 23/3/7 28/4/7 41/4/7 
f 41/4/7 38/3/7 23/3/7 
f 31/9/9 36/10/9 45/10/9 
f 45/10/9 42/9/9 31/9/9 
f 15/10/1 12/5/1 2/2/1 
f 2/2/1 16/9/1 15/10/1 
f 50/10/2 7/5/2 6/2/2 
f 6/2/2 47/9/2 50/10/2 
f 51/13/3 52/14/3 53/5/3 
f 53/5/3 54/2/3 51/13/3 
f 55/13/4 56/14/4 57/5/4 
f 57/5/4 58/2/4 55/13/4 
f 59/13/5 60/14/5 61/5/5 
f 61/5/5 62/2/5 59/13/5 
f 63/13/11 64/14/6 65/5/6 
f 65/5/6 66/2/11 63/13/11 
f 67/3/7 68/3/7 69/6/7 
f 69/6/7 70/6/7 67/3/7 
f 71/1/8 72/1/8 73/4/8 
f 73/4/8 74/4/8 71/1/8 
f 75/9/9 76/9/9 77/11/9 
f 77/11/9 78/11/9 75/9/9 
f 79/5/10 80/5/10 81/10/10 
f 81/10/10 82/10/10 79/5/10 
f 61/1/4 60/15/4 55/13/4 
f 55/13/4 58/2/4 61/1/4 
f 53/1/11 52/15/6 63/13/11 
f 63/13/11 66/2/11 53/1/11 
f 77/11/8 72/1/8 71/1/8 
f 71/1/8 78/11/8 77/11/8 
f 69/6/10 80/5/10 79/5/10 
f 79/5/10 70/6/10 69/6/10 
f 57/1/3 56/15/3 51/13/3 
f 51/13/3 54/2/3 57/1/3 
f 65/1/5 64/15/5 59/13/5 
f 59/13/5 62/2/5 65/1/5 
f 73/4/7 68/3/7 67/3/7 
f 67/3/7 74/4/7 73/4/7 
f 81/10/9 76/9/9 75/9/9 
f 75/9/9 82/10/9 81/10/9 
f 38/3/7 67/3/7 70/6/7 
f 70/6/7 39/6/7 38/3/7 
f 40/1/8 71/1/8 74/4/8 
f 74/4/8 41/4/8 40/1/8 
f 42/9/9 75/9/9 78/11/9 
f 78/11/9 43/11/9 42/9/9 
f 44/5/10 79/5/10 82/10/10 
f 82/10/10 45/10/10 44/5/10 
f 78/11/8 71/1/8 40/1/8 
f 40/1/8 43/11/8 78/11/8 
f 70/6/10 79/5/10 44/5/10 
f 44/5/10 39/6/10 70/6/10 
f 74/4/7 67/3/7 38/3/7 
f 38/3/7 41/4/7 74/4/7 
f 82/10/9 75/9/9 42/9/9 
f 42/9/9 45/10/9 82/10/9 
f 22/9/3 25/10/3 52/14/3 
f 52/14/3 51/13/3 22/9/3 
f 26/9/4 29/10/4 56/14/4 
f 56/14/4 55/13/4 26/9/4 
f 30/9/5 33/10/5 60/14/5 
f 60/14/5 59/13/5 30/9/5 
f 34/9/6 37/10/6 64/14/6 
f 64/14/6 63/13/11 34/9/6 
f 60/15/4 33/11/4 26/9/4 
f 26/9/4 55/13/4 60/15/4 
f 52/15/6 25/11/6 34/9/6 
f 34/9/6 63/13/11 52/15/6 
f 56/15/3 29/11/3 22/9/3 
f 22/9/3 51/13/3 56/15/3 
f 64/15/5 37/11/5 30/9/5 
f 30/9/5 59/13/5 64/15/5 
f 54/2/3 53/5/3 10/8/3 
f 10/8/3 9/7/3 54/2/3 
f 58/2/4 57/5/4 14/8/4 
f 14/8/4 13/7/4 58/2/4 
f 62/2/5 61/5/5 18/8/5 
f 18/8/5 17/7/5 62/2/5 
f 66/2/11 65/5/6 21/8/6 
f 21/8/6 20/7/6 66/2/11 
f 18/12/4 61/1/4 58/2/4 
f 58/2/4 13/7/4 18/12/4 
f 10/12/11 53/1/11 66/2/11 
f 66/2/11 20/7/6 10/12/11 
f 14/12/3 57/1/3 54/2/3 
f 54/2/3 9/7/3 14/12/3 
f 21/12/5 65/1/5 62/2/5 
f 62/2/5 17/7/5 21/12/5 
f 68/3/7 5/3/7 8/6/7 
f 8/6/7 69/6/7 68/3/7 
f 72/1/8 48/1/8 49/4/8 
f 49/4/8 73/4/8 72/1/8 
f 76/9/9 47/9/9 46/11/9 
f 46/11/9 77/11/9 76/9/9 
f 80/5/10 7/5/10 50/10/10 
f 50/10/10 81/10/10 80/5/10 
f 46/11/8 48/1/8 72/1/8 
f 72/1/8 77/11/8 46/11/8 
f 8/6/10 7/5/10 80/5/10 
f 80/5/10 69/6/10 8/6/10 
f 49/4/7 5/3/7 68/3/7 
f 68/3/7 73/4/7 49/4/7 
f 50/10/9 47/9/9 76/9/9 
f 76/9/9 81/10/9 50/10/9 
# 160 faces

