# 3ds Max Wavefront OBJ Exporter v0.97b - (c)2007 guruware
# File Created: 17.03.2014 14:27:33

#
# object Cabinet
#

v  -60.0000 0.0000 0.0000
v  -30.0000 0.0000 0.0000
v  -30.0000 -0.0000 30.0000
v  -60.0000 -0.0000 30.0000
v  -30.0000 200.0000 30.0000
v  -30.0000 200.0000 0.0000
v  -60.0000 200.0000 0.0000
v  -60.0000 200.0000 30.0000
v  -30.0000 3.4357 -26.3622
v  -30.0000 50.0000 -26.3622
v  -56.5643 50.0000 -26.3622
v  -56.5643 3.4357 -26.3622
v  60.0000 0.0000 0.0000
v  60.0000 50.0000 0.0000
v  60.0000 50.0000 30.0000
v  60.0000 -0.0000 30.0000
v  30.0000 0.0000 -30.0000
v  30.0000 50.0000 -30.0000
v  60.0000 50.0000 -30.0000
v  60.0000 0.0000 -30.0000
v  -60.0000 50.0000 0.0000
v  -60.0000 50.0000 -30.0000
v  -60.0000 0.0000 -30.0000
v  -30.0000 3.4357 30.0000
v  -56.5643 3.4357 30.0000
v  56.5643 50.0000 30.0000
v  56.5643 3.4357 30.0000
v  30.0000 200.0000 30.0000
v  30.0000 196.5643 30.0000
v  56.5643 196.5643 30.0000
v  60.0000 200.0000 30.0000
v  -60.0000 150.0000 30.0000
v  -56.5643 150.0000 30.0000
v  -56.5643 196.5643 30.0000
v  -30.0000 3.4357 0.0000
v  -56.5643 3.4357 0.0000
v  56.5643 50.0000 0.0000
v  56.5643 3.4357 0.0000
v  30.0000 196.5643 0.0000
v  56.5643 196.5643 0.0000
v  -56.5643 150.0000 0.0000
v  -56.5643 196.5643 0.0000
v  56.5643 196.5643 -26.3622
v  30.0000 196.5643 -26.3622
v  30.0000 150.0000 -26.3622
v  56.5643 150.0000 -26.3622
v  60.0000 200.0000 -30.0000
v  60.0000 200.0000 0.0000
v  60.0000 150.0000 0.0000
v  60.0000 150.0000 -30.0000
v  -60.0000 200.0000 -30.0000
v  -30.0000 200.0000 -30.0000
v  -30.0000 150.0000 -30.0000
v  -60.0000 150.0000 -30.0000
v  -60.0000 150.0000 0.0000
v  60.0000 150.0000 30.0000
v  56.5643 150.0000 30.0000
v  -60.0000 100.0000 30.0000
v  -56.5643 100.0000 30.0000
v  56.5643 150.0000 0.0000
v  -56.5643 100.0000 0.0000
v  30.0000 100.0000 -26.3622
v  56.5643 100.0000 -26.3622
v  60.0000 100.0000 0.0000
v  60.0000 100.0000 -30.0000
v  -30.0000 100.0000 -30.0000
v  -60.0000 100.0000 -30.0000
v  -60.0000 100.0000 0.0000
v  56.5643 100.0000 30.0000
v  60.0000 100.0000 30.0000
v  56.5643 100.0000 0.0000
v  -60.0000 50.0000 30.0000
v  -56.5643 50.0000 30.0000
v  -56.5643 50.0000 0.0000
v  30.0000 50.0000 -26.3622
v  56.5643 50.0000 -26.3622
v  -30.0000 50.0000 -30.0000
v  30.0000 0.0000 0.0000
v  0.0000 0.0000 0.0000
v  0.0000 0.0000 -30.0000
v  30.0000 200.0000 0.0000
v  0.0000 200.0000 0.0000
v  0.0000 200.0000 30.0000
v  30.0000 3.4357 -26.3622
v  0.0000 50.0000 -26.3622
v  0.0000 3.4357 -26.3622
v  -30.0000 0.0000 -30.0000
v  0.0000 50.0000 -30.0000
v  30.0000 -0.0000 30.0000
v  30.0000 3.4357 30.0000
v  0.0000 3.4357 30.0000
v  0.0000 -0.0000 30.0000
v  -30.0000 196.5643 30.0000
v  0.0000 196.5643 30.0000
v  30.0000 3.4357 0.0000
v  0.0000 3.4357 0.0000
v  -30.0000 196.5643 0.0000
v  0.0000 196.5643 0.0000
v  -30.0000 196.5643 -26.3622
v  -30.0000 150.0000 -26.3622
v  0.0000 150.0000 -26.3622
v  0.0000 196.5643 -26.3622
v  30.0000 200.0000 -30.0000
v  30.0000 150.0000 -30.0000
v  0.0000 150.0000 -30.0000
v  0.0000 200.0000 -30.0000
v  -30.0000 100.0000 -26.3622
v  0.0000 100.0000 -26.3622
v  30.0000 100.0000 -30.0000
v  0.0000 100.0000 -30.0000
v  -56.5643 196.5643 -26.3622
v  -56.5643 150.0000 -26.3622
v  -56.5643 100.0000 -26.3622
v  56.5643 3.4357 -26.3622
# 114 vertices

vn 0.0000 -1.0000 -0.0000
vn 0.0000 1.0000 0.0000
vn 0.0000 -0.0000 1.0000
vn 1.0000 0.0000 0.0000
vn 0.0000 0.0000 -1.0000
vn -1.0000 0.0000 0.0000
vn 1.0000 -0.0000 -0.0000
vn -1.0000 -0.0000 0.0000
vn -0.0000 -0.0000 1.0000
vn -0.0000 0.0000 1.0000
# 10 vertex normals

vt 0.9995 0.5000
vt 0.7498 0.5000
vt 0.7498 0.0005
vt 0.9995 0.0005
vt 0.2502 0.0005
vt 0.2502 0.5000
vt 0.0005 0.5000
vt 0.0005 0.0005
vt 0.2502 0.0177
vt 0.2502 0.2502
vt 0.0291 0.2502
vt 0.0291 0.0177
vt 0.5000 0.0005
vt 0.5000 0.2502
vt 0.0005 0.2502
vt 0.2502 0.2502
vt 0.5000 0.0005
vt 0.5000 0.2502
vt 0.0005 0.2502
vt 0.0005 0.0005
vt 0.2502 0.0005
vt 0.2502 0.0177
vt 0.0291 0.0177
vt 0.9995 0.2502
vt 0.9709 0.2502
vt 0.9709 0.0177
vt 0.7498 0.9995
vt 0.7498 0.9823
vt 0.9709 0.9823
vt 0.9995 0.9995
vt 0.0005 0.7498
vt 0.0291 0.7498
vt 0.0291 0.9823
vt 0.0005 0.9995
vt 0.2502 0.0005
vt 0.2502 0.5000
vt 0.0291 0.5000
vt 0.0291 0.0005
vt 0.9995 0.2502
vt 0.5000 0.2502
vt 0.5000 0.0177
vt 0.9995 0.0177
vt 0.2502 0.0005
vt 0.2502 0.5000
vt 0.0291 0.5000
vt 0.0291 0.0005
vt 0.0005 0.7498
vt 0.5000 0.7498
vt 0.5000 0.9823
vt 0.0005 0.9823
vt 0.9709 0.9823
vt 0.7498 0.9823
vt 0.7498 0.7498
vt 0.9709 0.7498
vt 0.9995 0.9995
vt 0.5000 0.9995
vt 0.5000 0.7498
vt 0.9995 0.7498
vt 0.7498 0.9995
vt 0.7498 0.7498
vt 0.5000 0.9995
vt 0.5000 0.7498
vt 0.9995 0.7498
vt 0.9709 0.7498
vt 0.0005 0.5000
vt 0.0291 0.5000
vt 0.9995 0.9823
vt 0.5000 0.9823
vt 0.5000 0.7498
vt 0.9995 0.7498
vt 0.0005 0.5000
vt 0.5000 0.5000
vt 0.7498 0.5000
vt 0.9709 0.5000
vt 0.5000 0.5000
vt 0.9995 0.5000
vt 0.7498 0.5000
vt 0.5000 0.5000
vt 0.9709 0.5000
vt 0.5000 0.5000
vt 0.9995 0.5000
vt 0.0291 0.2502
vt 0.0005 0.2502
vt 0.5000 0.2502
vt 0.7498 0.2502
vt 0.9709 0.2502
vt 0.9995 0.2502
vt 0.7498 0.2502
vt 0.0005 0.0177
vt 0.5000 0.0177
vt 0.2502 0.9995
vt 0.2502 0.5000
vt 0.7498 0.0005
vt 0.7498 0.0177
vt 0.5000 0.2502
vt 0.5000 0.0177
vt 0.7498 0.0177
vt 0.5000 0.0177
vt 0.2502 0.9823
vt 0.5000 0.9823
vt 0.7498 0.0005
vt 0.7498 0.5000
vt 0.5000 0.5000
vt 0.5000 0.0005
vt 0.7498 0.0005
vt 0.7498 0.5000
vt 0.5000 0.5000
vt 0.5000 0.0005
vt 0.2502 0.9823
vt 0.2502 0.7498
vt 0.5000 0.7498
vt 0.5000 0.9823
vt 0.2502 0.9995
vt 0.2502 0.7498
vt 0.2502 0.5000
vt 0.5000 0.5000
vt 0.9995 0.0005
vt 0.9709 0.0005
vt 0.9709 0.5000
vt 0.0291 0.9823
vt 0.0291 0.7498
vt 0.0291 0.5000
vt 0.9709 0.0177
vt 0.9709 0.0005
vt 0.9709 0.5000
vt 0.0005 0.9995
vt 0.0005 0.7498
vt 0.2502 0.9389
vt 0.0291 0.9389
vt 0.0611 0.2502
vt 0.0611 0.0177
vt 0.2502 0.9389
vt 0.0291 0.9389
vt 0.9389 0.7498
vt 0.9389 0.9823
vt 0.0611 0.9823
vt 0.0611 0.7498
vt 0.9389 0.5000
vt 0.0611 0.5000
vt 0.9389 0.2502
vt 0.9389 0.0177
vt 0.7498 0.9389
vt 0.5000 0.9389
vt 0.7498 0.9389
vt 0.5000 0.9389
vt 0.9709 0.9389
vt 0.9709 0.9389
# 147 texture coords

g Cabinet
f 1/1/1 2/2/1 3/3/1 
f 3/3/1 4/4/1 1/1/1 
f 5/5/2 6/6/2 7/7/2 
f 7/7/2 8/8/2 5/5/2 
f 9/9/3 10/10/3 11/11/3 
f 11/11/3 12/12/3 9/9/3 
f 13/13/4 14/14/4 15/15/4 
f 15/15/4 16/8/4 13/13/4 
f 17/5/5 18/16/5 19/15/5 
f 19/15/5 20/8/5 17/5/5 
f 1/17/6 21/18/6 22/19/6 
f 22/19/6 23/20/6 1/17/6 
f 3/21/3 24/22/3 25/23/3 
f 25/23/3 4/20/3 3/21/3 
f 15/24/3 26/25/3 27/26/3 
f 27/26/3 16/4/3 15/24/3 
f 28/27/3 29/28/3 30/29/3 
f 30/29/3 31/30/3 28/27/3 
f 32/31/3 33/32/3 34/33/3 
f 34/33/3 8/34/3 32/31/3 
f 24/35/2 35/36/2 36/37/2 
f 36/37/2 25/38/2 24/35/2 
f 26/39/6 37/40/6 38/41/6 
f 38/41/6 27/42/6 26/39/6 
f 29/43/1 39/44/1 40/45/1 
f 40/45/1 30/46/1 29/43/1 
f 33/47/7 41/48/7 42/49/7 
f 42/49/7 34/50/7 33/47/7 
f 43/51/3 44/52/3 45/53/3 
f 45/53/3 46/54/3 43/51/3 
f 47/55/4 48/56/4 49/57/4 
f 49/57/4 50/58/4 47/55/4 
f 51/55/5 52/59/5 53/60/5 
f 53/60/5 54/58/5 51/55/5 
f 8/30/6 7/61/6 55/62/6 
f 55/62/6 32/63/8 8/30/6 
f 56/63/3 31/30/3 30/29/3 
f 30/29/3 57/64/3 56/63/3 
f 58/65/9 59/66/9 33/32/9 
f 33/32/3 32/31/3 58/65/3 
f 30/67/6 40/68/6 60/69/6 
f 60/69/6 57/70/6 30/67/6 
f 59/71/4 61/72/4 41/48/4 
f 41/48/4 33/47/4 59/71/4 
f 46/54/3 45/53/3 62/73/3 
f 62/73/3 63/74/3 46/54/3 
f 50/58/4 49/57/4 64/75/4 
f 64/75/4 65/76/4 50/58/4 
f 54/58/5 53/60/5 66/77/5 
f 66/77/5 67/76/5 54/58/5 
f 32/63/8 55/62/6 68/78/8 
f 68/78/8 58/1/8 32/63/8 
f 56/63/3 57/64/3 69/79/3 
f 69/79/3 70/1/3 56/63/3 
f 57/70/6 60/69/6 71/80/6 
f 71/80/6 69/81/6 57/70/6 
f 72/19/9 73/82/9 59/66/9 
f 59/66/9 58/65/9 72/19/9 
f 73/83/4 74/84/4 61/72/4 
f 61/72/4 59/71/4 73/83/4 
f 63/74/3 62/73/3 75/85/3 
f 75/85/3 76/86/3 63/74/3 
f 65/76/4 64/75/4 14/14/4 
f 14/14/4 19/87/4 65/76/4 
f 67/76/5 66/77/5 77/88/5 
f 77/88/5 22/87/5 67/76/5 
f 58/1/8 68/78/8 21/18/6 
f 21/18/6 72/24/6 58/1/8 
f 70/1/3 69/79/3 26/25/3 
f 26/25/3 15/24/3 70/1/3 
f 69/81/6 71/80/6 37/40/6 
f 37/40/6 26/39/6 69/81/6 
f 72/19/10 4/20/10 25/23/10 
f 25/23/9 73/82/9 72/19/9 
f 25/89/4 36/90/4 74/84/4 
f 74/84/4 73/83/4 25/89/4 
f 17/91/1 78/92/1 79/78/1 
f 79/78/1 80/61/1 17/91/1 
f 28/93/2 81/77/2 82/75/2 
f 82/75/2 83/13/2 28/93/2 
f 84/94/3 75/85/3 85/95/3 
f 85/95/3 86/96/3 84/94/3 
f 87/93/5 77/88/5 88/14/5 
f 88/14/5 80/13/5 87/93/5 
f 89/3/3 90/97/3 91/98/3 
f 91/98/3 92/17/3 89/3/3 
f 5/91/3 93/99/3 94/100/3 
f 94/100/3 83/61/3 5/91/3 
f 90/101/2 95/102/2 96/103/2 
f 96/103/2 91/104/2 90/101/2 
f 93/105/1 97/106/1 98/107/1 
f 98/107/1 94/108/1 93/105/1 
f 99/109/3 100/110/3 101/111/3 
f 101/111/3 102/112/3 99/109/3 
f 103/113/5 104/114/5 105/57/5 
f 105/57/5 106/56/5 103/113/5 
f 100/110/3 107/115/3 108/116/3 
f 108/116/3 101/111/3 100/110/3 
f 104/114/5 109/6/5 110/75/5 
f 110/75/5 105/57/5 104/114/5 
f 107/115/3 10/10/3 85/95/3 
f 85/95/3 108/116/3 107/115/3 
f 109/6/5 18/16/5 88/14/5 
f 88/14/5 110/75/5 109/6/5 
f 80/61/1 79/78/1 2/2/1 
f 2/2/1 87/27/1 80/61/1 
f 83/13/2 82/75/2 6/6/2 
f 6/6/2 5/5/2 83/13/2 
f 86/96/3 85/95/3 10/10/3 
f 10/10/3 9/9/3 86/96/3 
f 92/17/3 91/98/3 24/22/3 
f 24/22/3 3/21/3 92/17/3 
f 91/104/2 96/103/2 35/36/2 
f 35/36/2 24/35/2 91/104/2 
f 106/56/5 105/57/5 53/60/5 
f 53/60/5 52/59/5 106/56/5 
f 105/57/5 110/75/5 66/77/5 
f 66/77/5 53/60/5 105/57/5 
f 110/75/5 88/14/5 77/88/5 
f 77/88/5 66/77/5 110/75/5 
f 23/117/5 22/87/5 77/88/5 
f 77/88/5 87/93/5 23/117/5 
f 5/91/3 8/34/3 34/33/3 
f 34/33/3 93/99/3 5/91/3 
f 34/118/1 42/119/1 97/106/1 
f 97/106/1 93/105/1 34/118/1 
f 111/120/3 112/121/3 100/110/3 
f 100/110/3 99/109/3 111/120/3 
f 112/121/3 113/122/3 107/115/3 
f 107/115/3 100/110/3 112/121/3 
f 113/122/3 11/11/3 10/10/3 
f 10/10/3 107/115/3 113/122/3 
f 80/13/5 88/14/5 18/16/5 
f 18/16/5 17/5/5 80/13/5 
f 83/61/3 94/100/3 29/28/3 
f 29/28/3 28/27/3 83/61/3 
f 94/108/1 98/107/1 39/44/1 
f 39/44/1 29/43/1 94/108/1 
f 102/112/3 101/111/3 45/53/3 
f 45/53/3 44/52/3 102/112/3 
f 101/111/3 108/116/3 62/73/3 
f 62/73/3 45/53/3 101/111/3 
f 108/116/3 85/95/3 75/85/3 
f 75/85/3 62/73/3 108/116/3 
f 20/34/1 13/65/1 78/92/1 
f 78/92/1 17/91/1 20/34/1 
f 31/117/2 48/76/2 81/77/2 
f 81/77/2 28/93/2 31/117/2 
f 114/123/3 76/86/3 75/85/3 
f 75/85/3 84/94/3 114/123/3 
f 89/3/3 16/4/3 27/26/3 
f 27/26/3 90/97/3 89/3/3 
f 27/124/2 38/125/2 95/102/2 
f 95/102/2 90/101/2 27/124/2 
f 47/126/5 50/127/5 104/114/5 
f 104/114/5 103/113/5 47/126/5 
f 50/127/5 65/7/5 109/6/5 
f 109/6/5 104/114/5 50/127/5 
f 65/7/5 19/15/5 18/16/5 
f 18/16/5 109/6/5 65/7/5 
f 23/30/1 87/27/1 2/2/1 
f 2/2/1 1/1/1 23/30/1 
f 52/113/2 51/126/2 7/7/2 
f 7/7/2 6/6/2 52/113/2 
f 20/117/4 19/87/4 14/14/4 
f 14/14/4 13/13/4 20/117/4 
f 4/4/6 72/24/6 21/18/6 
f 21/18/6 1/17/6 4/4/6 
f 9/128/2 12/129/2 36/37/2 
f 36/37/2 35/36/2 9/128/2 
f 76/130/6 114/131/6 38/41/6 
f 38/41/6 37/40/6 76/130/6 
f 44/132/1 43/133/1 40/45/1 
f 40/45/1 39/44/1 44/132/1 
f 112/134/7 111/135/7 42/49/7 
f 42/49/7 41/48/7 112/134/7 
f 31/126/4 56/127/4 49/57/4 
f 49/57/4 48/56/4 31/126/4 
f 51/34/6 54/31/6 55/62/6 
f 55/62/6 7/61/6 51/34/6 
f 43/136/6 46/137/6 60/69/6 
f 60/69/6 40/68/6 43/136/6 
f 113/138/4 112/134/4 41/48/4 
f 41/48/4 61/72/4 113/138/4 
f 56/127/4 70/7/4 64/75/4 
f 64/75/4 49/57/4 56/127/4 
f 54/31/6 67/65/6 68/78/8 
f 68/78/8 55/62/6 54/31/6 
f 46/137/6 63/139/6 71/80/6 
f 71/80/6 60/69/6 46/137/6 
f 11/140/4 113/138/4 61/72/4 
f 61/72/4 74/84/4 11/140/4 
f 70/7/4 15/15/4 14/14/4 
f 14/14/4 64/75/4 70/7/4 
f 67/65/6 22/19/6 21/18/6 
f 21/18/6 68/78/8 67/65/6 
f 63/139/6 76/130/6 37/40/6 
f 37/40/6 71/80/6 63/139/6 
f 12/141/4 11/140/4 74/84/4 
f 74/84/4 36/90/4 12/141/4 
f 89/21/1 92/17/1 79/78/1 
f 79/78/1 78/92/1 89/21/1 
f 103/59/2 106/56/2 82/75/2 
f 82/75/2 81/77/2 103/59/2 
f 84/142/2 86/143/2 96/103/2 
f 96/103/2 95/102/2 84/142/2 
f 99/144/1 102/145/1 98/107/1 
f 98/107/1 97/106/1 99/144/1 
f 92/17/1 3/3/1 2/2/1 
f 2/2/1 79/78/1 92/17/1 
f 106/56/2 52/113/2 6/6/2 
f 6/6/2 82/75/2 106/56/2 
f 86/143/2 9/128/2 35/36/2 
f 35/36/2 96/103/2 86/143/2 
f 111/146/1 99/144/1 97/106/1 
f 97/106/1 42/119/1 111/146/1 
f 102/145/1 44/132/1 39/44/1 
f 39/44/1 98/107/1 102/145/1 
f 16/20/1 89/21/1 78/92/1 
f 78/92/1 13/65/1 16/20/1 
f 47/55/2 103/59/2 81/77/2 
f 81/77/2 48/76/2 47/55/2 
f 114/147/2 84/142/2 95/102/2 
f 95/102/2 38/125/2 114/147/2 
# 224 faces

