# 3ds Max Wavefront OBJ Exporter v0.97b - (c)2007 guruware
# File Created: 17.03.2014 14:41:07

#
# object MinuteHand
#

v  -17.0000 -4.7500 1.3333
v  -17.0000 -3.2500 1.3333
v  -12.5000 -3.2500 1.3333
v  -12.5000 -4.7500 1.3333
v  -8.0000 -3.2500 1.3333
v  -8.0000 -4.7500 1.3333
v  -3.5000 -3.2500 1.3333
v  -3.5000 -4.7500 1.3333
v  1.0000 -3.2500 1.3333
v  1.0000 -4.7500 1.3333
v  -17.0000 -4.7500 2.8333
v  -12.5000 -4.7500 2.8333
v  -12.5000 -3.2500 2.8333
v  -17.0000 -3.2500 2.8333
v  -8.0000 -4.7500 2.8333
v  -8.0000 -3.2500 2.8333
v  -3.5000 -4.7500 2.8333
v  -3.5000 -3.2500 2.8333
v  1.0000 -4.7500 2.8333
v  1.0000 -3.2500 2.8333
# 20 vertices

vn 0.0000 0.0000 -1.0000
vn 0.0000 -0.0000 1.0000
vn 0.0000 -1.0000 -0.0000
vn 1.0000 0.0000 0.0000
vn 0.0000 1.0000 0.0000
vn -1.0000 0.0000 0.0000
# 6 vertex normals

vt 0.9995 0.0005
vt 0.9995 0.9995
vt 0.7498 0.9995
vt 0.7498 0.0005
vt 0.5000 0.9995
vt 0.5000 0.0005
vt 0.2502 0.9995
vt 0.2502 0.0005
vt 0.0005 0.9995
vt 0.0005 0.0005
vt 0.0005 0.0005
vt 0.2502 0.0005
vt 0.2502 0.9995
vt 0.0005 0.9995
vt 0.5000 0.0005
vt 0.5000 0.9995
vt 0.7498 0.0005
vt 0.7498 0.9995
vt 0.9995 0.0005
vt 0.9995 0.9995
# 20 texture coords

g MinuteHand
f 1/1/1 2/2/1 3/3/1 
f 3/3/1 4/4/1 1/1/1 
f 4/4/1 3/3/1 5/5/1 
f 5/5/1 6/6/1 4/4/1 
f 6/6/1 5/5/1 7/7/1 
f 7/7/1 8/8/1 6/6/1 
f 8/8/1 7/7/1 9/9/1 
f 9/9/1 10/10/1 8/8/1 
f 11/11/2 12/12/2 13/13/2 
f 13/13/2 14/14/2 11/11/2 
f 12/12/2 15/15/2 16/16/2 
f 16/16/2 13/13/2 12/12/2 
f 15/15/2 17/17/2 18/18/2 
f 18/18/2 16/16/2 15/15/2 
f 17/17/2 19/19/2 20/20/2 
f 20/20/2 18/18/2 17/17/2 
f 1/10/3 4/8/3 12/7/3 
f 12/7/3 11/9/3 1/10/3 
f 4/8/3 6/6/3 15/5/3 
f 15/5/3 12/7/3 4/8/3 
f 6/6/3 8/4/3 17/3/3 
f 17/3/3 15/5/3 6/6/3 
f 8/4/3 10/1/3 19/2/3 
f 19/2/3 17/3/3 8/4/3 
f 10/11/4 9/19/4 20/20/4 
f 20/20/4 19/14/4 10/11/4 
f 9/11/5 7/12/5 18/13/5 
f 18/13/5 20/14/5 9/11/5 
f 7/12/5 5/15/5 16/16/5 
f 16/16/5 18/13/5 7/12/5 
f 5/15/5 3/17/5 13/18/5 
f 13/18/5 16/16/5 5/15/5 
f 3/17/5 2/19/5 14/20/5 
f 14/20/5 13/18/5 3/17/5 
f 2/10/6 1/1/6 11/2/6 
f 11/2/6 14/9/6 2/10/6 
# 36 faces

