# 3ds Max Wavefront OBJ Exporter v0.97b - (c)2007 guruware
# File Created: 17.03.2014 14:41:35

#
# object HourHand
#

v  -0.7500 12.0000 1.3333
v  0.7500 12.0000 1.3333
v  0.7500 8.0000 1.3333
v  -0.7500 8.0000 1.3333
v  0.7500 4.0000 1.3333
v  -0.7500 4.0000 1.3333
v  0.7500 0.0000 1.3333
v  -0.7500 0.0000 1.3333
v  -0.7500 12.0000 2.8333
v  -0.7500 8.0000 2.8333
v  0.7500 8.0000 2.8333
v  0.7500 12.0000 2.8333
v  -0.7500 4.0000 2.8333
v  0.7500 4.0000 2.8333
v  -0.7500 0.0000 2.8333
v  0.7500 0.0000 2.8333
# 16 vertices

vn 0.0000 0.0000 -1.0000
vn -0.0000 -0.0000 1.0000
vn -1.0000 -0.0000 -0.0000
vn 0.0000 -1.0000 -0.0000
vn 1.0000 0.0000 0.0000
vn -0.0000 1.0000 0.0000
# 6 vertex normals

vt 0.9995 0.0005
vt 0.9995 0.9995
vt 0.6665 0.9995
vt 0.6665 0.0005
vt 0.3335 0.9995
vt 0.3335 0.0005
vt 0.0005 0.9995
vt 0.0005 0.0005
vt 0.0005 0.0005
vt 0.3335 0.0005
vt 0.3335 0.9995
vt 0.0005 0.9995
vt 0.6665 0.0005
vt 0.6665 0.9995
vt 0.9995 0.0005
vt 0.9995 0.9995
# 16 texture coords

g HourHand
f 1/1/1 2/2/1 3/3/1 
f 3/3/1 4/4/1 1/1/1 
f 4/4/1 3/3/1 5/5/1 
f 5/5/1 6/6/1 4/4/1 
f 6/6/1 5/5/1 7/7/1 
f 7/7/1 8/8/1 6/6/1 
f 9/9/2 10/10/2 11/11/2 
f 11/11/2 12/12/2 9/9/2 
f 10/10/2 13/13/2 14/14/2 
f 14/14/2 11/11/2 10/10/2 
f 13/13/2 15/15/2 16/16/2 
f 16/16/2 14/14/2 13/13/2 
f 1/8/3 4/6/3 10/5/3 
f 10/5/3 9/7/3 1/8/3 
f 4/6/3 6/4/3 13/3/3 
f 13/3/3 10/5/3 4/6/3 
f 6/4/3 8/1/3 15/2/3 
f 15/2/3 13/3/3 6/4/3 
f 8/9/4 7/15/4 16/16/4 
f 16/16/4 15/12/4 8/9/4 
f 7/9/5 5/10/5 14/11/5 
f 14/11/5 16/12/5 7/9/5 
f 5/10/5 3/13/5 11/14/5 
f 11/14/5 14/11/5 5/10/5 
f 3/13/5 2/15/5 12/16/5 
f 12/16/5 11/14/5 3/13/5 
f 2/8/6 1/1/6 9/2/6 
f 9/2/6 12/7/6 2/8/6 
# 28 faces

