# 3ds Max Wavefront OBJ Exporter v0.97b - (c)2007 guruware
# File Created: 17.03.2014 14:43:50

#
# object WhiteStone1
#

v  17.5000 -0.0001 17.5001
v  16.4393 -0.0001 16.4394
v  17.5000 -0.0001 16.0001
v  16.0000 -0.0001 17.5001
v  16.4393 -0.0001 18.5607
v  17.5000 -0.0001 19.0001
v  18.5607 -0.0001 18.5607
v  19.0000 -0.0001 17.5001
v  18.5607 -0.0001 16.4394
v  16.4393 0.9999 16.4394
v  17.5000 0.9999 16.0001
v  16.0000 0.9999 17.5001
v  16.4393 0.9999 18.5607
v  17.5000 0.9999 19.0001
v  18.5607 0.9999 18.5607
v  19.0000 0.9999 17.5001
v  18.5607 0.9999 16.4394
v  17.5000 0.9999 17.5001
# 18 vertices

vn -0.0000 -1.0000 0.0000
vn -0.0000 0.0000 -1.0000
vn -0.7071 0.0000 -0.7071
vn -0.0000 -0.0000 -1.0000
vn -1.0000 0.0000 0.0000
vn -0.7071 0.0000 0.7071
vn 0.0000 -0.0000 1.0000
vn 0.7071 -0.0000 0.7071
vn 1.0000 -0.0000 -0.0000
vn 0.7071 -0.0000 -0.7071
vn 0.0000 1.0000 -0.0000
# 11 vertex normals

vt 0.5000 0.5000-0.2498
vt 0.1468 0.8532-0.2498
vt 0.5000 0.9995-0.2498
vt 0.0005 0.5000-0.2498
vt 0.1468 0.1468-0.2498
vt 0.5000 0.0005-0.2498
vt 0.8532 0.1468-0.2498
vt 0.9995 0.5000-0.2498
vt 0.8532 0.8532-0.2498
vt 0.7500 0.0005
vt 0.8750 0.9995
vt 0.7500 0.9995
vt 0.8750 0.0005
vt 1.0000 0.9995
vt 1.0000 0.0005
vt -0.0000 0.0005 0.9990
vt 0.1250 0.9995
vt -0.0000 0.9995 0.9990
vt 0.1250 0.0005
vt 0.2500 0.9995
vt 0.2500 0.0005
vt 0.3750 0.9995
vt 0.3750 0.0005
vt 0.5000 0.9995
vt 0.5000 0.0005
vt 0.6250 0.9995
vt 0.6250 0.0005
vt 0.5000 0.5000
vt 0.5000 0.9995
vt 0.1468 0.8532
vt 0.0005 0.5000
vt 0.1468 0.1468
vt 0.5000 0.0005
vt 0.8532 0.1468
vt 0.9995 0.5000
vt 0.8532 0.8532
# 36 texture coords

g WhiteStone1
f 1/1/1 2/2/1 3/3/1 
f 1/1/1 4/4/1 2/2/1 
f 1/1/1 5/5/1 4/4/1 
f 1/1/1 6/6/1 5/5/1 
f 1/1/1 7/7/1 6/6/1 
f 1/1/1 8/8/1 7/7/1 
f 1/1/1 9/9/1 8/8/1 
f 1/1/1 3/3/1 9/9/1 
f 3/10/2 10/11/3 11/12/4 
f 3/10/2 2/13/3 10/11/3 
f 2/13/3 12/14/5 10/11/3 
f 2/13/3 4/15/5 12/14/5 
f 4/16/5 13/17/6 12/18/5 
f 4/16/5 5/19/6 13/17/6 
f 5/19/6 14/20/7 13/17/6 
f 5/19/6 6/21/7 14/20/7 
f 6/21/7 15/22/8 14/20/7 
f 6/21/7 7/23/8 15/22/8 
f 7/23/8 16/24/9 15/22/8 
f 7/23/8 8/25/9 16/24/9 
f 8/25/9 17/26/10 16/24/9 
f 8/25/9 9/27/10 17/26/10 
f 9/27/10 11/12/4 17/26/10 
f 9/27/10 3/10/2 11/12/4 
f 18/28/11 11/29/11 10/30/11 
f 18/28/11 10/30/11 12/31/11 
f 18/28/11 12/31/11 13/32/11 
f 18/28/11 13/32/11 14/33/11 
f 18/28/11 14/33/11 15/34/11 
f 18/28/11 15/34/11 16/35/11 
f 18/28/11 16/35/11 17/36/11 
f 18/28/11 17/36/11 11/29/11 
# 32 faces

