# 3ds Max Wavefront OBJ Exporter v0.97b - (c)2007 guruware
# File Created: 17.03.2014 16:52:46

#
# object Metronome
#

v  -5.0000 0.0000 2.1939
v  -2.4687 0.0000 2.1939
v  -2.4687 0.0000 5.0000
v  -5.0000 0.0000 5.0000
v  -2.4687 5.5000 4.0862
v  -4.0862 5.5000 4.0862
v  5.0000 0.0000 2.1939
v  4.0862 5.5000 2.1939
v  4.0862 5.5000 4.0862
v  5.0000 0.0000 5.0000
v  2.4369 -0.0000 -5.0000
v  2.4369 5.5000 -4.0862
v  4.0862 5.5000 -4.0862
v  5.0000 -0.0000 -5.0000
v  -5.0000 -0.0000 -1.6503
v  -4.0862 5.5000 -1.6503
v  -4.0862 5.5000 -4.0862
v  -5.0000 -0.0000 -5.0000
v  3.2460 10.5563 -3.2460
v  3.2460 10.5563 -1.6503
v  4.0862 5.5000 -1.6503
v  -2.4687 5.5000 -4.0862
v  -3.2460 10.5563 -3.2460
v  -2.4687 10.5563 -3.2460
v  1.6769 20.0000 -1.6503
v  0.0000 20.0000 -1.6503
v  0.0000 20.0000 0.5158
v  1.6769 20.0000 0.5158
v  -1.6769 20.0000 -1.6503
v  -2.4687 15.2344 -1.6503
v  -2.4687 15.2344 0.5158
v  -1.6769 20.0000 0.5158
v  -2.4687 0.3983 3.7202
v  -2.4687 0.3983 2.1939
v  -3.7270 0.3983 2.1939
v  -3.7270 0.3983 3.7202
v  3.2460 10.5563 0.5158
v  2.4369 10.5563 0.5158
v  2.4369 5.5000 0.5158
v  4.0862 5.5000 0.5158
v  -2.4687 5.5000 3.7202
v  -3.7270 5.5000 3.7202
v  3.7270 5.5000 2.1939
v  3.7270 5.5000 3.7202
v  2.4369 5.5000 0.5240
v  3.7270 5.5000 0.5240
v  -4.0862 5.5000 2.1939
v  -3.7270 5.5000 2.1939
v  -3.7270 5.5000 0.5240
v  -4.0862 5.5000 0.5158
v  3.7270 0.3982 2.1939
v  3.7270 0.3982 3.7202
v  2.4369 0.3982 0.5240
v  3.7270 0.3982 0.5240
v  -3.7270 0.3983 0.5240
v  2.4369 -0.0000 -1.6503
v  0.0000 -0.0000 -1.6503
v  0.0000 -0.0000 -5.0000
v  2.4369 0.0000 5.0000
v  2.4369 5.5000 4.0862
v  0.0000 5.5000 4.0862
v  0.0000 0.0000 5.0000
v  -2.4687 -0.0000 -5.0000
v  0.0000 5.5000 -4.0862
v  2.4369 15.4258 -2.4369
v  2.4369 15.2245 -2.4704
v  0.0000 15.2245 -2.4704
v  1.6769 20.0000 -1.6769
v  0.0000 20.0000 -1.6769
v  -1.6769 20.0000 -1.6769
v  2.4369 0.3982 3.7202
v  2.4369 0.3982 2.1939
v  0.0000 0.3983 2.1939
v  0.0000 0.3983 3.7202
v  -2.4687 15.2245 0.5158
v  0.0000 15.2245 0.5158
v  2.4369 5.5000 3.7202
v  0.0000 5.5000 3.7202
v  -2.4687 5.5000 0.5158
v  -2.4687 5.5000 0.5240
v  0.0000 5.5000 0.5240
v  0.0000 5.5000 0.5158
v  -2.4687 0.3983 0.5240
v  0.0000 0.3982 0.5240
v  -2.4687 -0.0000 -1.6503
v  5.0000 -0.0000 -1.6503
v  2.4369 15.4258 0.5158
v  2.4369 15.4258 -1.6503
v  -2.4687 15.2344 -2.4687
v  2.4369 0.0000 2.1939
v  2.4369 15.2245 0.5158
v  2.4704 15.2245 -2.4704
v  2.4704 15.2245 0.5158
v  2.4704 15.2245 -1.6503
v  0.0000 0.0000 2.1939
v  -2.4687 15.2245 -2.4704
v  -2.4704 15.2245 -1.6503
v  -2.4704 15.2245 0.5158
v  -2.4704 15.2245 -2.4704
v  0.0000 10.5563 -3.2460
v  2.4369 10.5563 -3.2460
v  0.0000 10.5563 0.5158
v  -2.4687 10.5563 0.5158
v  -3.2460 10.5563 0.5158
v  -3.2460 10.5563 -1.6503
# 105 vertices

vn 0.0000 -1.0000 0.0000
vn 0.0000 0.1639 0.9865
vn 0.9865 0.1639 -0.0000
vn 0.0000 0.1639 -0.9865
vn -0.9865 0.1639 -0.0000
vn 0.0000 1.0000 -0.0000
vn -0.9865 0.1639 0.0000
vn 0.0000 0.0000 1.0000
vn -0.0000 1.0000 -0.0000
vn -0.0000 -0.0000 -1.0000
vn 0.0000 -0.0000 -1.0000
vn -1.0000 0.0000 -0.0000
vn 1.0000 -0.0000 0.0000
vn -0.0000 0.1639 -0.9865
vn 0.0000 1.0000 0.0001
vn -1.0000 0.0000 0.0000
vn -0.0000 0.0000 1.0000
vn 0.0001 0.1639 -0.9865
# 18 vertex normals

vt 0.9995 0.2808
vt 0.7466 0.2808
vt 0.7466 0.0005
vt 0.9995 0.0005
vt 0.2534 0.0005
vt 0.2534 0.2752
vt 0.0918 0.2752
vt 0.0005 0.0005
vt 0.2808 0.0005
vt 0.2808 0.2752
vt 0.0918 0.2752
vt 0.0005 0.0005
vt 0.2565 0.0005
vt 0.2565 0.2752
vt 0.3351 0.0005
vt 0.3351 0.2752
vt 0.8243 0.5278
vt 0.6649 0.5278
vt 0.6649 0.2752
vt 0.9082 0.2752
vt 0.7466 0.2752
vt 0.7466 0.5278
vt 0.6675 0.6649
vt 0.5000 0.6649
vt 0.5000 0.4485
vt 0.6675 0.4485
vt 0.3351 0.9995
vt 0.3351 0.7615
vt 0.5515 0.7615
vt 0.5515 0.9995
vt 0.2534 0.1284
vt 0.2534 0.2808
vt 0.1277 0.2808
vt 0.1277 0.1284
vt 0.8243 0.5278
vt 0.7435 0.5278
vt 0.7435 0.2752
vt 0.9082 0.2752
vt 0.2534 0.0918
vt 0.2534 0.1284
vt 0.1277 0.1284
vt 0.0918 0.0918
vt 0.9082 0.2808
vt 0.8723 0.2808
vt 0.8723 0.1284
vt 0.9082 0.0918
vt 0.7435 0.4485
vt 0.7435 0.4476
vt 0.8723 0.4476
vt 0.9082 0.4485
vt 0.0918 0.2808
vt 0.1277 0.2808
vt 0.1277 0.4476
vt 0.0918 0.4485
vt 0.7466 0.2752
vt 0.7466 0.0204
vt 0.8723 0.0204
vt 0.8723 0.2752
vt 0.7192 0.2752
vt 0.7192 0.0204
vt 0.8716 0.0204
vt 0.8716 0.2752
vt 0.7435 0.2752
vt 0.7435 0.0204
vt 0.8723 0.0204
vt 0.8723 0.2752
vt 0.2808 0.2752
vt 0.2808 0.0204
vt 0.4476 0.0204
vt 0.4476 0.2752
vt 0.2565 0.9995
vt 0.2565 0.6649
vt 0.5000 0.6649
vt 0.5000 0.9995
vt 0.7435 0.0005
vt 0.7435 0.2752
vt 0.5000 0.2752
vt 0.5000 0.0005
vt 0.7466 0.0005
vt 0.5000 0.2752
vt 0.5000 0.0005
vt 0.2565 0.7710
vt 0.2565 0.7610
vt 0.5000 0.7610
vt 0.3325 0.9995
vt 0.5000 0.9995
vt 0.3325 0.6675
vt 0.3325 0.6649
vt 0.5000 0.6675
vt 0.7435 0.1284
vt 0.7435 0.2808
vt 0.5000 0.2808
vt 0.5000 0.1284
vt 0.2534 0.7615
vt 0.2534 0.7610
vt 0.5000 0.7610
vt 0.3325 0.9995
vt 0.5000 0.9995
vt 0.7435 0.0918
vt 0.7435 0.1284
vt 0.5000 0.1284
vt 0.5000 0.0918
vt 0.2534 0.4485
vt 0.2534 0.4476
vt 0.5000 0.4476
vt 0.5000 0.4485
vt 0.2565 0.2752
vt 0.2565 0.0204
vt 0.5000 0.0204
vt 0.5000 0.2752
vt 0.2534 0.2752
vt 0.2534 0.0204
vt 0.5000 0.0204
vt 0.5000 0.2752
vt 0.9995 0.9995
vt 0.7466 0.9995
vt 0.7466 0.6649
vt 0.9995 0.6649
vt 0.6649 0.0005
vt 0.9995 0.0005
vt 0.7192 0.0005
vt 0.7192 0.2752
vt 0.5515 0.2752
vt 0.4485 0.9995
vt 0.4485 0.7710
vt 0.6649 0.7710
vt 0.6649 0.9995
vt 0.6675 0.6675
vt 0.3325 0.9995
vt 0.2534 0.7615
vt 0.0005 0.2808
vt 0.2565 0.2808
vt 0.0005 0.6649
vt 0.3325 0.4485
vt 0.4485 0.2752
vt 0.5000 0.4476
vt 0.2534 0.4476
vt 0.5524 0.2752
vt 0.5524 0.0204
vt 0.1284 0.2752
vt 0.1284 0.0204
vt 0.8723 0.4476
vt 0.7435 0.4476
vt 0.8723 0.2808
vt 0.9082 0.2752
vt 0.2565 0.0005
vt 0.6675 0.9995
vt 0.7435 0.7710
vt 0.6675 0.9995
vt 0.7435 0.7610
vt 0.7435 0.7710
vt 0.0005 0.9995
vt 0.2532 0.7610
vt 0.8723 0.1284
vt 0.1277 0.2752
vt 0.1277 0.0204
vt 0.4485 0.7610
vt 0.6649 0.7610
vt 0.5000 0.2808
vt 0.7466 0.7610
vt 0.7466 0.7615
vt 0.3351 0.7610
vt 0.5515 0.7610
vt 0.2532 0.7610
vt 0.1277 0.2752
vt 0.1277 0.0204
vt 0.2532 0.7610
vt 0.1277 0.4476
vt 0.7468 0.7610
vt 0.7468 0.7610
vt 0.5000 0.5278
vt 0.2565 0.5278
vt 0.2534 0.2752
vt 0.5000 0.2752
vt 0.5000 0.5278
vt 0.2534 0.5278
vt 0.1757 0.5278
vt 0.4485 0.5278
vt 0.5515 0.5278
vt 0.3351 0.5278
vt 0.1757 0.5278
vt 0.0918 0.2752
vt 0.1757 0.5278
# 183 texture coords

g Metronome
f 1/1/1 2/2/1 3/3/1 
f 3/3/1 4/4/1 1/1/1 
f 3/5/2 5/6/2 6/7/2 
f 6/7/2 4/8/2 3/5/2 
f 7/9/3 8/10/3 9/11/3 
f 9/11/3 10/12/3 7/9/3 
f 11/13/4 12/14/4 13/11/4 
f 13/11/4 14/12/4 11/13/4 
f 15/15/5 16/16/5 17/7/5 
f 17/7/5 18/8/5 15/15/5 
f 19/17/3 20/18/3 21/19/3 
f 21/19/3 13/20/3 19/17/3 
f 22/21/4 17/20/4 23/17/4 
f 23/17/4 24/22/4 22/21/4 
f 25/23/6 26/24/6 27/25/6 
f 27/25/6 28/26/6 25/23/6 
f 29/27/5 30/28/7 31/29/5 
f 31/29/5 32/30/5 29/27/5 
f 33/31/6 34/32/6 35/33/6 
f 35/33/6 36/34/6 33/31/6 
f 37/35/8 38/36/8 39/37/8 
f 39/37/8 40/38/8 37/35/8 
f 5/39/6 41/40/6 42/41/6 
f 42/41/6 6/42/6 5/39/6 
f 8/43/6 43/44/6 44/45/6 
f 44/45/6 9/46/6 8/43/6 
f 39/47/6 45/48/6 46/49/6 
f 46/49/6 40/50/6 39/47/6 
f 47/51/9 48/52/9 49/53/9 
f 49/53/6 50/54/6 47/51/6 
f 41/55/10 33/56/10 36/57/10 
f 36/57/11 42/58/11 41/55/11 
f 43/59/12 51/60/12 52/61/12 
f 52/61/12 44/62/12 43/59/12 
f 45/63/8 53/64/8 54/65/8 
f 54/65/8 46/66/8 45/63/8 
f 48/67/13 35/68/13 55/69/13 
f 55/69/13 49/70/13 48/67/13 
f 11/71/1 56/72/1 57/73/1 
f 57/73/1 58/74/1 11/71/1 
f 59/75/2 60/76/2 61/77/2 
f 61/77/2 62/78/2 59/75/2 
f 63/79/4 22/21/4 64/80/4 
f 64/80/4 58/81/4 63/79/4 
f 65/82/4 66/83/4 67/84/14 
f 68/85/4 65/82/4 67/84/14 
f 69/86/4 68/85/4 67/84/14 
f 70/87/6 29/88/6 26/24/6 
f 26/24/6 69/89/6 70/87/6 
f 71/90/6 72/91/6 73/92/6 
f 73/92/6 74/93/6 71/90/6 
f 31/94/8 75/95/8 76/96/8 
f 32/97/8 31/94/8 76/96/8 
f 27/98/8 32/97/8 76/96/8 
f 60/99/6 77/100/6 78/101/6 
f 78/101/6 61/102/6 60/99/6 
f 79/103/15 80/104/15 81/105/15 
f 81/105/6 82/106/6 79/103/6 
f 77/107/10 71/108/10 74/109/10 
f 74/109/10 78/110/10 77/107/10 
f 80/111/8 83/112/8 84/113/8 
f 84/113/8 81/114/8 80/111/8 
f 18/115/1 63/116/1 85/117/1 
f 85/117/1 15/118/1 18/115/1 
f 86/119/3 14/120/3 13/20/3 
f 13/20/3 21/19/3 86/119/3 
f 15/15/5 1/121/5 47/122/5 
f 15/15/5 47/122/5 50/123/5 
f 15/15/5 50/123/5 16/16/5 
f 28/124/3 87/125/3 88/126/3 
f 88/126/3 25/127/3 28/124/3 
f 68/128/6 69/89/6 26/24/6 
f 26/24/6 25/23/6 68/128/6 
f 70/129/5 89/130/5 30/28/7 
f 30/28/7 29/27/5 70/129/5 
f 7/131/1 90/132/1 56/72/1 
f 56/72/1 86/133/1 7/131/1 
f 32/134/6 27/25/6 26/24/6 
f 26/24/6 29/88/6 32/134/6 
f 15/118/1 85/117/1 2/2/1 
f 2/2/1 1/1/1 15/118/1 
f 7/9/3 86/119/3 21/19/3 
f 7/9/3 21/19/3 40/135/3 
f 7/9/3 40/135/3 8/10/3 
f 84/136/6 83/137/6 34/32/6 
f 34/32/6 73/92/6 84/136/6 
f 40/50/6 46/49/6 43/44/6 
f 43/44/6 8/43/6 40/50/6 
f 47/51/9 6/42/9 42/41/9 
f 42/41/9 48/52/9 47/51/9 
f 46/138/12 54/139/12 51/60/12 
f 51/60/16 43/59/16 46/138/16 
f 42/140/13 36/141/13 35/68/13 
f 35/68/13 48/67/13 42/140/13 
f 54/142/6 53/143/6 72/91/6 
f 72/91/6 51/144/6 54/142/6 
f 1/121/5 4/4/5 6/145/5 
f 6/145/5 47/122/5 1/121/5 
f 10/8/1 59/146/1 90/132/1 
f 90/132/1 7/131/1 10/8/1 
f 58/81/4 64/80/4 12/14/4 
f 12/14/4 11/13/4 58/81/4 
f 68/147/3 25/127/3 88/126/3 
f 88/126/3 65/148/3 68/147/3 
f 28/149/8 27/98/8 76/96/8 
f 28/149/8 76/96/8 91/150/8 
f 87/151/17 28/149/17 91/150/17 
f 82/106/6 81/105/6 45/48/6 
f 45/48/6 39/47/6 82/106/6 
f 81/114/8 84/113/8 53/64/8 
f 53/64/8 45/63/8 81/114/8 
f 14/152/1 86/133/1 56/72/1 
f 56/72/1 11/71/1 14/152/1 
f 59/75/2 10/4/2 9/145/2 
f 9/145/2 60/76/2 59/75/2 
f 65/82/4 92/153/4 66/83/4 
f 52/154/6 51/144/6 72/91/6 
f 72/91/6 71/90/6 52/154/6 
f 60/99/6 9/46/6 44/45/6 
f 44/45/6 77/100/6 60/99/6 
f 44/155/10 52/156/10 71/108/10 
f 71/108/11 77/107/11 44/155/11 
f 93/157/3 94/158/3 88/126/3 
f 88/126/3 87/125/3 93/157/3 
f 95/159/1 57/73/1 56/72/1 
f 56/72/1 90/132/1 95/159/1 
f 84/136/6 73/92/6 72/91/6 
f 72/91/6 53/143/6 84/136/6 
f 62/78/1 95/159/1 90/132/1 
f 90/132/1 59/146/1 62/78/1 
f 95/159/1 62/78/1 3/3/1 
f 3/3/1 2/2/1 95/159/1 
f 62/78/2 61/77/2 5/6/2 
f 5/6/2 3/5/2 62/78/2 
f 70/147/14 69/86/4 67/84/14 
f 70/147/14 67/84/14 96/160/18 
f 89/161/18 70/147/14 96/160/18 
f 97/162/7 98/163/5 31/29/5 
f 31/29/5 30/28/7 97/162/7 
f 74/93/6 73/92/6 34/32/6 
f 34/32/6 33/31/6 74/93/6 
f 61/102/6 78/101/6 41/40/6 
f 41/40/6 5/39/6 61/102/6 
f 78/110/10 74/109/10 33/56/10 
f 33/56/10 41/55/10 78/110/10 
f 63/79/4 18/120/4 17/20/4 
f 17/20/4 22/21/4 63/79/4 
f 31/94/8 98/164/8 75/95/8 
f 79/103/6 50/54/6 49/53/6 
f 49/53/15 80/104/15 79/103/15 
f 49/165/8 55/166/8 83/112/8 
f 83/112/8 80/111/8 49/165/8 
f 58/74/1 57/73/1 85/117/1 
f 85/117/1 63/116/1 58/74/1 
f 99/167/7 97/162/7 30/28/7 
f 30/28/7 89/130/5 99/167/7 
f 57/73/1 95/159/1 2/2/1 
f 2/2/1 85/117/1 57/73/1 
f 55/168/6 35/33/6 34/32/6 
f 34/32/6 83/137/6 55/168/6 
f 92/169/3 94/158/3 20/18/3 
f 20/18/3 19/17/3 92/169/3 
f 23/17/4 99/169/18 96/160/18 
f 96/160/18 24/22/4 23/17/4 
f 93/170/8 91/150/8 38/36/8 
f 38/36/8 37/35/8 93/170/8 
f 12/14/4 64/80/4 100/171/14 
f 100/171/14 101/172/4 12/14/4 
f 79/173/8 82/174/8 102/175/8 
f 102/175/8 103/176/8 79/173/8 
f 82/174/8 39/37/8 38/36/8 
f 38/36/8 102/175/8 82/174/8 
f 19/177/4 13/11/4 12/14/4 
f 12/14/4 101/172/4 19/177/4 
f 40/135/3 21/19/3 20/18/3 
f 20/18/3 37/178/3 40/135/3 
f 64/80/4 22/21/4 24/22/4 
f 24/22/4 100/171/14 64/80/4 
f 16/16/5 50/123/5 104/179/5 
f 104/179/5 105/180/5 16/16/5 
f 104/181/8 50/182/8 79/173/8 
f 79/173/8 103/176/8 104/181/8 
f 23/183/5 17/7/5 16/16/5 
f 16/16/5 105/180/5 23/183/5 
f 101/172/4 100/171/14 67/84/14 
f 67/84/14 66/83/4 101/172/4 
f 103/176/8 102/175/8 76/96/8 
f 76/96/8 75/95/8 103/176/8 
f 102/175/8 38/36/8 91/150/8 
f 91/150/8 76/96/8 102/175/8 
f 66/83/4 92/153/4 19/177/4 
f 19/177/4 101/172/4 66/83/4 
f 37/178/3 20/18/3 94/158/3 
f 94/158/3 93/157/3 37/178/3 
f 100/171/14 24/22/4 96/160/18 
f 96/160/18 67/84/14 100/171/14 
f 105/180/5 104/179/5 98/163/5 
f 98/163/5 97/162/7 105/180/5 
f 75/95/8 98/164/8 104/181/8 
f 104/181/8 103/176/8 75/95/8 
f 99/167/7 23/183/5 105/180/5 
f 105/180/5 97/162/7 99/167/7 
f 65/148/3 88/126/3 94/158/3 
f 94/158/3 92/169/3 65/148/3 
f 99/169/18 89/161/18 96/160/18 
f 93/170/8 87/151/8 91/150/8 
# 206 faces

