# 3ds Max Wavefront OBJ Exporter v0.97b - (c)2007 guruware
# File Created: 17.03.2014 15:07:30

#
# object Display
#

v  8.7500 21.6585 -10.6356
v  8.7500 17.2840 -8.5958
v  16.6241 17.2840 -8.5958
v  16.6241 21.6585 -10.6356
v  17.5000 16.8554 -9.5149
v  8.7500 16.8554 -9.5149
v  8.7500 22.0238 -11.9249
v  17.5000 22.0238 -11.9249
v  17.5000 17.4893 -8.1554
v  17.5000 22.6577 -10.5655
v  8.7500 0.0000 -0.0000
v  8.7500 -0.6339 -1.3595
v  17.5000 -0.6339 -1.3595
v  17.5000 0.0000 -0.0000
v  -17.5000 5.1684 -2.4101
v  -17.5000 4.5345 -3.7695
v  -17.5000 -0.6339 -1.3595
v  -17.5000 -0.0000 -0.0000
v  -8.7500 22.6577 -10.5655
v  -8.7500 22.0238 -11.9249
v  -17.5000 22.0238 -11.9249
v  -17.5000 22.6577 -10.5655
v  8.7500 22.6577 -10.5655
v  8.7500 21.8638 -10.1953
v  16.6241 21.8638 -10.1953
v  -17.5000 17.4893 -8.1554
v  -16.6241 17.4893 -8.1554
v  -16.6241 21.8638 -10.1953
v  -8.7500 0.0000 -0.0000
v  -8.7500 0.7939 -0.3702
v  -16.6241 0.7939 -0.3702
v  17.5000 5.1684 -2.4101
v  16.6241 5.1684 -2.4101
v  16.6241 0.7939 -0.3702
v  -16.6241 17.2840 -8.5958
v  -16.6241 21.6585 -10.6356
v  -8.7500 0.5885 -0.8105
v  -16.6241 0.5885 -0.8105
v  16.6241 4.9631 -2.8504
v  16.6241 0.5885 -0.8105
v  -16.6241 4.9631 -2.8504
v  -8.7500 4.9631 -2.8504
v  -8.7500 11.1235 -5.7231
v  -16.6241 11.1235 -5.7231
v  17.5000 4.5345 -3.7695
v  8.7500 4.5345 -3.7695
v  8.7500 10.6949 -6.6422
v  17.5000 10.6949 -6.6422
v  17.5000 11.3288 -5.2827
v  -17.5000 16.8554 -9.5149
v  -17.5000 10.6949 -6.6422
v  -17.5000 11.3288 -5.2827
v  -16.6241 5.1684 -2.4101
v  -16.6241 11.3288 -5.2827
v  16.6241 17.4893 -8.1554
v  16.6241 11.3288 -5.2827
v  16.6241 11.1235 -5.7231
v  -8.7500 17.2840 -8.5958
v  -8.7500 21.6585 -10.6356
v  -0.0000 17.2840 -8.5958
v  -0.0000 21.6585 -10.6356
v  -8.7500 16.8554 -9.5149
v  -0.0000 22.0238 -11.9249
v  -0.0000 16.8554 -9.5149
v  -8.7500 -0.6339 -1.3595
v  0.0000 -0.6339 -1.3595
v  0.0000 0.0000 -0.0000
v  -0.0000 22.6577 -10.5655
v  -8.7500 21.8638 -10.1953
v  -0.0000 21.8638 -10.1953
v  8.7500 0.7939 -0.3702
v  -0.0000 0.7939 -0.3702
v  8.7500 0.5885 -0.8105
v  -0.0000 0.5885 -0.8105
v  8.7500 4.9631 -2.8504
v  8.7500 11.1235 -5.7231
v  -0.0000 11.1235 -5.7231
v  -0.0000 4.9631 -2.8504
v  -8.7500 4.5345 -3.7695
v  -8.7500 10.6949 -6.6422
v  -0.0000 10.6949 -6.6422
v  -0.0000 4.5345 -3.7695
# 82 vertices

vn -0.0000 0.4226 0.9063
vn 0.0000 -0.4226 -0.9063
vn 1.0000 0.0000 0.0000
vn 0.0000 -0.9063 0.4226
vn -1.0000 -0.0000 0.0000
vn -0.0000 0.9063 -0.4226
# 6 vertex normals

vt 0.9645 0.2502
vt 0.7716 0.2502
vt 0.7716 0.0255
vt 0.9645 0.0255
vt 0.2284 0.0005
vt 0.2284 0.2502
vt 0.0005 0.2502
vt 0.0005 0.0005
vt 0.2284 0.0005
vt 0.2284 0.9995
vt 0.0005 0.9995
vt 0.0005 0.0005
vt 0.2502 0.0005
vt 0.2502 0.9995
vt 0.0005 0.9995
vt 0.2284 0.9995
vt 0.2502 0.0005
vt 0.2502 0.9995
vt 0.9995 0.2502
vt 0.9645 0.2502
vt 0.9645 0.0255
vt 0.9995 0.0005
vt 0.7716 0.9995
vt 0.7716 0.9745
vt 0.9645 0.9745
vt 0.9995 0.9995
vt 0.0005 0.7498
vt 0.0355 0.7498
vt 0.0355 0.9745
vt 0.2284 0.0255
vt 0.0355 0.0255
vt 0.2502 0.0005
vt 0.2502 0.3241
vt 0.0255 0.3241
vt 0.0255 0.0005
vt 0.2284 0.0005
vt 0.2284 0.3241
vt 0.0355 0.3241
vt 0.0355 0.0005
vt 0.2502 0.0005
vt 0.2502 0.3241
vt 0.0255 0.3241
vt 0.0255 0.0005
vt 0.2284 0.0005
vt 0.2284 0.3241
vt 0.0355 0.3241
vt 0.0355 0.0005
vt 0.2284 0.9745
vt 0.2284 0.7498
vt 0.5000 0.7498
vt 0.5000 0.9745
vt 0.7716 0.0005
vt 0.7716 0.2502
vt 0.5000 0.2502
vt 0.5000 0.0005
vt 0.7716 0.0005
vt 0.5000 0.9995
vt 0.5000 0.0005
vt 0.7716 0.9995
vt 0.5000 0.9995
vt 0.2284 0.9745
vt 0.5000 0.9745
vt 0.7716 0.0255
vt 0.5000 0.0255
vt 0.7716 0.0005
vt 0.7716 0.3241
vt 0.5000 0.3241
vt 0.5000 0.0005
vt 0.7716 0.0005
vt 0.7716 0.3241
vt 0.5000 0.3241
vt 0.5000 0.0005
vt 0.0355 0.9745
vt 0.0355 0.7498
vt 0.9995 0.0005
vt 0.9995 0.2502
vt 0.9645 0.0005
vt 0.9645 0.3241
vt 0.7716 0.7498
vt 0.7716 0.9745
vt 0.9995 0.9995
vt 0.9645 0.0005
vt 0.9645 0.3241
vt 0.9645 0.7498
vt 0.7716 0.5000
vt 0.9645 0.5000
vt 0.2284 0.7498
vt 0.0005 0.7498
vt 0.0005 0.5000
vt 0.2284 0.5000
vt 0.7498 0.0005
vt 0.7498 0.9995
vt 0.7498 0.0005
vt 0.7498 0.9995
vt 0.9995 0.7498
vt 0.9645 0.7498
vt 0.9645 0.5000
vt 0.9995 0.5000
vt 0.0005 0.2502
vt 0.0355 0.2502
vt 0.0355 0.5000
vt 0.0005 0.5000
vt 0.7498 0.0005
vt 0.7498 0.3241
vt 0.5000 0.3241
vt 0.5000 0.0005
vt 0.7498 0.0005
vt 0.7498 0.3241
vt 0.5000 0.3241
vt 0.5000 0.0005
vt 0.2284 0.2502
vt 0.5000 0.2502
vt 0.5000 0.5000
vt 0.2284 0.5000
vt 0.7716 0.7498
vt 0.5000 0.7498
vt 0.5000 0.5000
vt 0.7716 0.5000
vt 0.0355 0.2502
vt 0.0355 0.5000
vt 0.9995 0.7498
vt 0.9995 0.5000
vt 0.9745 0.0005
vt 0.9745 0.3241
vt 0.2284 0.0255
vt 0.5000 0.0255
vt 0.0355 0.0255
vt 0.9645 0.9745
vt 0.9745 0.0005
vt 0.9745 0.3241
# 130 texture coords

g Display
f 1/1/1 2/2/1 3/3/1 
f 3/3/1 4/4/1 1/1/1 
f 5/5/2 6/6/2 7/7/2 
f 7/7/2 8/8/2 5/5/2 
f 9/9/3 5/10/3 8/11/3 
f 8/11/3 10/12/3 9/9/3 
f 11/13/4 12/14/4 13/15/4 
f 13/15/4 14/8/4 11/13/4 
f 15/5/5 16/16/5 17/15/5 
f 17/15/5 18/8/5 15/5/5 
f 19/17/6 20/18/6 21/11/6 
f 21/11/6 22/12/6 19/17/6 
f 23/19/1 24/20/1 25/21/1 
f 25/21/1 10/22/1 23/19/1 
f 26/23/1 27/24/1 28/25/1 
f 28/25/1 22/26/1 26/23/1 
f 29/27/1 30/28/1 31/29/1 
f 31/29/1 18/11/1 29/27/1 
f 32/9/1 33/30/1 34/31/1 
f 34/31/1 14/12/1 32/9/1 
f 24/32/4 1/33/4 4/34/4 
f 4/34/4 25/35/4 24/32/4 
f 27/36/3 35/37/3 36/38/3 
f 36/38/3 28/39/3 27/36/3 
f 30/40/6 37/41/6 38/42/6 
f 38/42/6 31/43/6 30/40/6 
f 33/44/5 39/45/5 40/46/5 
f 40/46/5 34/47/5 33/44/5 
f 41/48/1 42/49/1 43/50/1 
f 43/50/1 44/51/1 41/48/1 
f 45/52/2 46/53/2 47/54/2 
f 47/54/2 48/55/2 45/52/2 
f 32/56/3 45/23/3 48/57/3 
f 48/57/3 49/58/3 32/56/3 
f 26/52/5 50/59/5 51/60/5 
f 51/60/5 52/55/5 26/52/5 
f 15/10/1 53/61/1 54/62/1 
f 54/62/1 52/57/1 15/10/1 
f 9/56/1 55/63/1 56/64/1 
f 56/64/1 49/58/1 9/56/1 
f 53/65/3 41/66/3 44/67/3 
f 44/67/3 54/68/3 53/65/3 
f 55/69/5 3/70/5 57/71/5 
f 57/71/5 56/72/5 55/69/5 
f 52/55/5 51/60/5 16/16/5 
f 16/16/5 15/5/5 52/55/5 
f 49/58/1 56/64/1 33/30/1 
f 33/30/1 32/9/1 49/58/1 
f 56/72/5 57/71/5 39/45/5 
f 39/45/5 33/44/5 56/72/5 
f 38/73/1 37/74/1 42/49/1 
f 42/49/1 41/48/1 38/73/1 
f 13/75/2 12/76/2 46/53/2 
f 46/53/2 45/52/2 13/75/2 
f 14/22/3 13/26/3 45/23/3 
f 45/23/3 32/56/3 14/22/3 
f 15/10/1 18/11/1 31/29/1 
f 31/29/1 53/61/1 15/10/1 
f 31/77/3 38/78/3 41/66/3 
f 41/66/3 53/65/3 31/77/3 
f 44/51/1 43/50/1 58/79/1 
f 58/79/1 35/80/1 44/51/1 
f 48/55/2 47/54/2 6/6/2 
f 6/6/2 5/5/2 48/55/2 
f 49/58/3 48/57/3 5/10/3 
f 5/10/3 9/9/3 49/58/3 
f 52/57/1 54/62/1 27/24/1 
f 27/24/1 26/23/1 52/57/1 
f 54/68/3 44/67/3 35/37/3 
f 35/37/3 27/36/3 54/68/3 
f 22/75/5 21/81/5 50/59/5 
f 50/59/5 26/52/5 22/75/5 
f 9/56/1 10/22/1 25/21/1 
f 25/21/1 55/63/1 9/56/1 
f 25/82/5 4/83/5 3/70/5 
f 3/70/5 55/69/5 25/82/5 
f 59/84/1 58/79/1 60/85/1 
f 60/85/1 61/86/1 59/84/1 
f 62/87/2 20/88/2 63/89/2 
f 63/89/2 64/90/2 62/87/2 
f 29/91/4 65/92/4 66/60/4 
f 66/60/4 67/55/4 29/91/4 
f 23/93/6 7/94/6 63/57/6 
f 63/57/6 68/58/6 23/93/6 
f 19/95/1 69/96/1 70/97/1 
f 70/97/1 68/98/1 19/95/1 
f 11/99/1 71/100/1 72/101/1 
f 72/101/1 67/102/1 11/99/1 
f 69/103/4 59/104/4 61/105/4 
f 61/105/4 70/106/4 69/103/4 
f 71/107/6 73/108/6 74/109/6 
f 74/109/6 72/110/6 71/107/6 
f 75/111/1 76/112/1 77/113/1 
f 77/113/1 78/114/1 75/111/1 
f 79/115/2 80/116/2 81/117/2 
f 81/117/2 82/118/2 79/115/2 
f 73/119/1 75/111/1 78/114/1 
f 78/114/1 74/120/1 73/119/1 
f 65/121/2 79/115/2 82/118/2 
f 82/118/2 66/122/2 65/121/2 
f 76/112/1 2/2/1 60/85/1 
f 60/85/1 77/113/1 76/112/1 
f 80/116/2 62/87/2 64/90/2 
f 64/90/2 81/117/2 80/116/2 
f 61/86/1 60/85/1 2/2/1 
f 2/2/1 1/1/1 61/86/1 
f 64/90/2 63/89/2 7/7/2 
f 7/7/2 6/6/2 64/90/2 
f 67/55/4 66/60/4 12/14/4 
f 12/14/4 11/13/4 67/55/4 
f 68/98/1 70/97/1 24/20/1 
f 24/20/1 23/19/1 68/98/1 
f 70/106/4 61/105/4 1/33/4 
f 1/33/4 24/32/4 70/106/4 
f 82/118/2 81/117/2 47/54/2 
f 47/54/2 46/53/2 82/118/2 
f 66/122/2 82/118/2 46/53/2 
f 46/53/2 12/76/2 66/122/2 
f 81/117/2 64/90/2 6/6/2 
f 6/6/2 47/54/2 81/117/2 
f 10/22/6 8/26/6 7/94/6 
f 7/94/6 23/93/6 10/22/6 
f 11/99/1 14/12/1 34/31/1 
f 34/31/1 71/100/1 11/99/1 
f 34/123/6 40/124/6 73/108/6 
f 73/108/6 71/107/6 34/123/6 
f 39/125/1 57/126/1 76/112/1 
f 76/112/1 75/111/1 39/125/1 
f 40/127/1 39/125/1 75/111/1 
f 75/111/1 73/119/1 40/127/1 
f 57/126/1 3/3/1 2/2/1 
f 2/2/1 76/112/1 57/126/1 
f 68/58/6 63/57/6 20/18/6 
f 20/18/6 19/17/6 68/58/6 
f 67/102/1 72/101/1 30/28/1 
f 30/28/1 29/27/1 67/102/1 
f 72/110/6 74/109/6 37/41/6 
f 37/41/6 30/40/6 72/110/6 
f 78/114/1 77/113/1 43/50/1 
f 43/50/1 42/49/1 78/114/1 
f 74/120/1 78/114/1 42/49/1 
f 42/49/1 37/74/1 74/120/1 
f 77/113/1 60/85/1 58/79/1 
f 58/79/1 43/50/1 77/113/1 
f 36/128/1 35/80/1 58/79/1 
f 58/79/1 59/84/1 36/128/1 
f 50/16/2 21/15/2 20/88/2 
f 20/88/2 62/87/2 50/16/2 
f 18/75/4 17/81/4 65/92/4 
f 65/92/4 29/91/4 18/75/4 
f 19/95/1 22/26/1 28/25/1 
f 28/25/1 69/96/1 19/95/1 
f 28/129/4 36/130/4 59/104/4 
f 59/104/4 69/103/4 28/129/4 
f 16/59/2 51/60/2 80/116/2 
f 80/116/2 79/115/2 16/59/2 
f 17/81/2 16/59/2 79/115/2 
f 79/115/2 65/121/2 17/81/2 
f 51/60/2 50/16/2 62/87/2 
f 62/87/2 80/116/2 51/60/2 
# 160 faces

